<?xml version="1.0" encoding="UTF-8"?>
<svg id="Layer_1" data-name="Layer 1" xmlns="http://www.w3.org/2000/svg" viewBox="0 0 864.01 95.39">
  <defs>
    <style>
      .cls-1 {
        fill: #231f20;
        fill-rule: evenodd;
        stroke-width: 0px;
      }
    </style>
  </defs>
  <path class="cls-1" d="M198.38,95.07L229.07,1h46.35l31.22,94.07h-35.3l-5.87-16.95h-27.73l-5.89,16.95h-33.47ZM251.04,17.9l-13.39,37.27h25.72l-12.33-37.27h0Z"/>
  <path class="cls-1" d="M551.08,94.33L581.77.26h46.35l31.22,94.07h-35.3l-5.87-16.95h-27.73l-5.89,16.95h-33.47ZM605.04,21.09l-13.39,37.27h25.72l-12.33-37.27h0Z"/>
  <path class="cls-1" d="M307.95,94.29V.22h66.73c7.53,0,13.66,2.69,18.49,5.98,4.81,3.28,8.94,7.53,10.59,13.3,2.34,8.18,1.82,14.77.27,19.28-1.56,4.52-4.27,8.31-8.14,11.34-3.87,3.04-7.1,5.43-14.33,7.16,2.79,2.84,2.77,2.95,6.06,5.29,4.48,3.18,8.62,3.63,23.97,3.69h26.39v28.03l-26.57.07c-28.92.07-39.1-.15-44.64-5.12-6.97-6.25-14.54-13.57-25.07-26.02v31.07h-33.73ZM341.69,23.66v17.35h23.52c1.26,0,2.63-.47,4.08-1.4,1.46-.93,2.25-3.29,2.34-7.07-.22-3.6-1.1-5.98-2.62-7.14-1.52-1.16-2.82-1.73-3.84-1.73h-23.47Z"/>
  <path class="cls-1" d="M864.01,1.23h-68.85c-11.89,0-18.96,5.8-21.2,17.46-2.24,11.63,4.15,24.4,19.15,38.3,9.09,7.23,7.52,10.65-4.66,10.3h-16.01v-.04h-8.49c-15.35-.07-19.49-.52-23.97-3.7-3.3-2.34-3.27-2.45-6.06-5.29,7.24-1.73,10.46-4.12,14.33-7.16,3.87-3.03,6.59-6.82,8.14-11.34,1.55-4.51,2.07-11.1-.26-19.28-1.65-5.77-5.78-10.01-10.59-13.3-4.83-3.3-10.96-5.98-18.49-5.98h-66.73v94.07h33.73v-31.07c10.53,12.45,18.11,19.77,25.07,26.02,5.54,4.97,15.72,5.35,44.64,5.12l5.02-.04h0s49.64,0,49.64,0c13.44-2.27,20.3-9.21,20.56-20.86.24-11.63-6.48-23.76-20.56-35.96-7.69-6.66-6.16-9.25,4.92-9.25h40.65V1.23h0ZM693.06,21.01v17.35h23.52c1.26,0,2.63-.47,4.08-1.4,1.46-.93,2.25-3.29,2.34-7.07-.22-3.6-1.1-5.98-2.62-7.14-1.52-1.16-2.82-1.73-3.84-1.73h-23.47Z"/>
  <path class="cls-1" d="M74.11,1.06c-11.89,0-18.95,5.81-21.2,17.46-2.23,11.63,3.78,24.82,19.15,38.3,8.73,7.66,7.52,10.3-4.65,10.3H0v28.02h97.39c13.62,0,20.31-9.21,20.56-20.86.25-11.63-6.6-23.62-20.56-35.96-7.81-6.52-6.16-9.58,4.92-9.25h41.79v66.07h30.36V29.06h42.38V1.06H74.11Z"/>
  <path class="cls-1" d="M482.44,0l-8.35,27.95-9.27-27.95h-34.81l30.69,94.07h30.06l10.29-31.43,10.29,31.43h30.06L572.1,0h-34.81l-9.26,27.95-8.35-27.95h-37.24Z"/>
</svg>